<?xml version="1.0" encoding="UTF-8"?>
<svg version="1.1" xmlns="http://www.w3.org/2000/svg" width="50" height="50">
<path d="M0 0 C2.89271357 1.23072477 5.55366842 2.76510239 8.25 4.375 C8.96929687 4.7875 9.68859375 5.2 10.4296875 5.625 C13.25781125 7.26679469 15.67711054 8.67711054 18 11 C18.50973723 14.93736472 18.41676864 18.90840032 18.4375 22.875 C18.47037109 23.97714844 18.50324219 25.07929688 18.53710938 26.21484375 C18.59112827 34.29803518 18.59112827 34.29803518 15.875 37.5234375 C14.92625 38.01070312 13.9775 38.49796875 13 39 C11.97003906 39.63421875 10.94007812 40.2684375 9.87890625 40.921875 C8.78449219 41.52515625 7.69007812 42.1284375 6.5625 42.75 C4.92474609 43.67039062 4.92474609 43.67039062 3.25390625 44.609375 C-0.34222507 46.14625705 -2.1439282 46.59174938 -6 46 C-8.89271357 44.76927523 -11.55366842 43.23489761 -14.25 41.625 C-14.96929687 41.2125 -15.68859375 40.8 -16.4296875 40.375 C-19.25781125 38.73320531 -21.67711054 37.32288946 -24 35 C-24.50973723 31.06263528 -24.41676864 27.09159968 -24.4375 23.125 C-24.47037109 22.02285156 -24.50324219 20.92070312 -24.53710938 19.78515625 C-24.59112827 11.70196482 -24.59112827 11.70196482 -21.875 8.4765625 C-20.92625 7.98929688 -19.9775 7.50203125 -19 7 C-17.97003906 6.36578125 -16.94007812 5.7315625 -15.87890625 5.078125 C-14.78449219 4.47484375 -13.69007812 3.8715625 -12.5625 3.25 C-11.47066406 2.63640625 -10.37882812 2.0228125 -9.25390625 1.390625 C-5.65777493 -0.14625705 -3.8560718 -0.59174938 0 0 Z M-8.85546875 4.8984375 C-9.55994141 5.29546875 -10.26441406 5.6925 -10.99023438 6.1015625 C-11.71533203 6.52179687 -12.44042969 6.94203125 -13.1875 7.375 C-13.92419922 7.7875 -14.66089844 8.2 -15.41992188 8.625 C-19.37294722 10.64502869 -19.37294722 10.64502869 -22 14 C-22.26151272 16.9729241 -22.23142772 19.9543274 -22.25 22.9375 C-22.270625 23.76185547 -22.29125 24.58621094 -22.3125 25.43554688 C-22.31765625 26.22896484 -22.3228125 27.02238281 -22.328125 27.83984375 C-22.3374707 28.56550537 -22.34681641 29.29116699 -22.35644531 30.03881836 C-21.89350706 32.58592999 -20.98252604 33.37961345 -19 35 C-16.74862752 36.48786355 -14.51116065 37.88743459 -12.1875 39.25 C-11.58357422 39.62640625 -10.97964844 40.0028125 -10.35742188 40.390625 C-7.46324204 42.08538693 -5.38418464 43.00250773 -2.0078125 42.98046875 C1.7389026 41.75913694 4.93436656 40.06948779 8.3125 38.0625 C8.94478516 37.70220703 9.57707031 37.34191406 10.22851562 36.97070312 C13.70142137 35.08235478 13.70142137 35.08235478 16 32 C16.0689472 30.62657169 16.08467708 29.24997898 16.0625 27.875 C16.041875 26.59625 16.02125 25.3175 16 24 C15.34 24 14.68 24 14 24 C14 24.66 14 25.32 14 26 C13.34 26 12.68 26 12 26 C12 25.34 12 24.68 12 24 C11.34 24 10.68 24 10 24 C10 23.34 10 22.68 10 22 C10.66 22 11.32 22 12 22 C12 21.34 12 20.68 12 20 C12.66 20 13.32 20 14 20 C14 20.66 14 21.32 14 22 C14.66 22 15.32 22 16 22 C16.0928125 20.1128125 16.0928125 20.1128125 16.1875 18.1875 C16.22230469 17.47980469 16.25710937 16.77210937 16.29296875 16.04296875 C15.89822052 13.29025779 15.19538883 12.71347421 13 11 C10.70556121 9.54193015 8.42023488 8.1580391 6.0625 6.8125 C5.44181641 6.44447266 4.82113281 6.07644531 4.18164062 5.69726562 C-0.69182935 2.8998212 -3.88354171 2.08136519 -8.85546875 4.8984375 Z " fill="#000000" transform="translate(28,2)"/>
<path d="M0 0 C2.40823788 1.09034392 3.95504966 2.27793655 6 4 C5.875 5.875 5.875 5.875 5 8 C1.9375 9.25 1.9375 9.25 -1 10 C-1.33 9.67 -1.66 9.34 -2 9 C-5 8.83333333 -5 8.83333333 -8 9 C-9.34404775 10.11836224 -9.34404775 10.11836224 -9.125 13 C-9.34404775 15.88163776 -9.34404775 15.88163776 -8 17 C-4.63370749 17.14636054 -2.21580438 17.07193479 1 16 C3.6875 17.4375 3.6875 17.4375 6 19 C5.70926678 21.81042113 5.18436938 22.83347282 3.0625 24.75 C-1.34206039 26.54777975 -5.3071853 26.68327382 -10 26 C-14.12974965 23.93512518 -16.29527061 22.2541445 -18 18 C-18.7121481 12.98184011 -18.52912753 9.05825505 -16.25 4.5 C-11.65726358 -0.60304047 -6.5793064 -0.88965464 0 0 Z M-14 7 C-15.60086627 10.20173254 -15.49917089 13.52577059 -15 17 C-13.20636089 19.8100346 -11.98119065 21.50940468 -9 23 C-3.698624 23.66946701 -3.698624 23.66946701 0.75390625 21.484375 C1.16511719 20.99453125 1.57632812 20.5046875 2 20 C0.86111328 20.05220703 0.86111328 20.05220703 -0.30078125 20.10546875 C-1.29464844 20.13253906 -2.28851563 20.15960938 -3.3125 20.1875 C-4.29863281 20.22230469 -5.28476562 20.25710937 -6.30078125 20.29296875 C-9 20 -9 20 -10.83203125 18.73828125 C-12.22906855 16.65907858 -12.40329052 15.48956538 -12.375 13 C-12.38273437 12.319375 -12.39046875 11.63875 -12.3984375 10.9375 C-11.86606435 8.3487051 -11.1765581 7.49899417 -9 6 C-6.30078125 5.70703125 -6.30078125 5.70703125 -3.3125 5.8125 C-2.31863281 5.83957031 -1.32476562 5.86664063 -0.30078125 5.89453125 C0.83810547 5.94673828 0.83810547 5.94673828 2 6 C-0.42385056 3.1621377 -0.86604028 3.01512448 -4.875 2.5625 C-8.99456292 2.70664677 -11.09914268 4.01123791 -14 7 Z " fill="#000000" transform="translate(30,12)"/>
<path d="M0 0 C0.66 0 1.32 0 2 0 C2 0.66 2 1.32 2 2 C2.66 2 3.32 2 4 2 C4 2.66 4 3.32 4 4 C3.34 4 2.68 4 2 4 C2 4.66 2 5.32 2 6 C1.34 6 0.68 6 0 6 C0 5.34 0 4.68 0 4 C-0.66 4 -1.32 4 -2 4 C-2 3.34 -2 2.68 -2 2 C-1.34 2 -0.68 2 0 2 C0 1.34 0 0.68 0 0 Z " fill="#000000" transform="translate(33,22)"/>
</svg>
