<?xml version="1.0" encoding="UTF-8"?>
<svg version="1.1" xmlns="http://www.w3.org/2000/svg" width="50" height="50">
<path d="M0 0 C4.03105303 0.48758253 5.28578265 1.71310475 8.14599609 4.54931641 C9.02900391 5.42458984 9.91201172 6.29986328 10.82177734 7.20166016 C11.72541016 8.12849609 12.62904297 9.05533203 13.56005859 10.01025391 C14.48689453 10.91388672 15.41373047 11.81751953 16.36865234 12.74853516 C17.24392578 13.63154297 18.11919922 14.51455078 19.02099609 15.42431641 C19.82069824 16.23078613 20.62040039 17.03725586 21.44433594 17.86816406 C23.64259401 21.0468514 23.84309663 22.59258439 23.18505859 26.38525391 C21.44433594 28.90234375 21.44433594 28.90234375 19.02099609 31.34619141 C18.14572266 32.22919922 17.27044922 33.11220703 16.36865234 34.02197266 C14.97839844 35.37742187 14.97839844 35.37742187 13.56005859 36.76025391 C12.65642578 37.68708984 11.75279297 38.61392578 10.82177734 39.56884766 C9.93876953 40.44412109 9.05576172 41.31939453 8.14599609 42.22119141 C7.33952637 43.02089355 6.53305664 43.8205957 5.70214844 44.64453125 C2.5234611 46.84278932 0.97772811 47.04329194 -2.81494141 46.38525391 C-5.33203125 44.64453125 -5.33203125 44.64453125 -7.77587891 42.22119141 C-8.65888672 41.34591797 -9.54189453 40.47064453 -10.45166016 39.56884766 C-11.80710937 38.17859375 -11.80710937 38.17859375 -13.18994141 36.76025391 C-14.11677734 35.85662109 -15.04361328 34.95298828 -15.99853516 34.02197266 C-16.87380859 33.13896484 -17.74908203 32.25595703 -18.65087891 31.34619141 C-19.85043213 30.13648682 -19.85043213 30.13648682 -21.07421875 28.90234375 C-23.24461848 25.76393966 -23.38879017 24.1290533 -22.81494141 20.38525391 C-21.56152344 18.41894531 -21.56152344 18.41894531 -19.82275391 16.73681641 C-19.20013672 16.12451172 -18.57751953 15.51220703 -17.93603516 14.88134766 C-17.27732422 14.26388672 -16.61861328 13.64642578 -15.93994141 13.01025391 C-15.28896484 12.36958984 -14.63798828 11.72892578 -13.96728516 11.06884766 C-9.12390996 6.38525391 -9.12390996 6.38525391 -6.81494141 6.38525391 C-6.38181641 5.45712891 -6.38181641 5.45712891 -5.93994141 4.51025391 C-4.30702349 1.42585339 -3.51928575 0.48165073 0 0 Z M-0.81494141 3.38525391 C-0.81494141 4.70525391 -0.81494141 6.02525391 -0.81494141 7.38525391 C0.83505859 7.38525391 2.48505859 7.38525391 4.18505859 7.38525391 C2.82182116 5.345282 2.82182116 5.345282 1.18505859 3.38525391 C0.52505859 3.38525391 -0.13494141 3.38525391 -0.81494141 3.38525391 Z M6.18505859 9.38525391 C5.88898162 12.99513455 5.88898162 12.99513455 7.37255859 16.19775391 C9.74488385 17.75203597 11.40547205 17.61062579 14.18505859 17.38525391 C13.23084051 16.23599125 12.27153815 15.0909485 11.31005859 13.94775391 C10.77638672 13.30966797 10.24271484 12.67158203 9.69287109 12.01416016 C8.26278289 10.27720386 8.26278289 10.27720386 6.18505859 9.38525391 Z M-2.81494141 10.38525391 C-2.85766241 12.05137296 -2.85557973 13.71908276 -2.81494141 15.38525391 C-2.48494141 15.71525391 -2.15494141 16.04525391 -1.81494141 16.38525391 C-1.71489237 18.63341455 -1.68527257 20.88487298 -1.68994141 23.13525391 C-1.68736328 24.36759766 -1.68478516 25.59994141 -1.68212891 26.86962891 C-1.79488773 29.85442118 -2.11905173 32.49123652 -2.81494141 35.38525391 C-1.16494141 35.71525391 0.48505859 36.04525391 2.18505859 36.38525391 C2.56724626 34.72910733 2.89900961 33.06068366 3.18505859 31.38525391 C2.85505859 31.05525391 2.52505859 30.72525391 2.18505859 30.38525391 C1.94978087 28.03538129 1.77119443 25.67969352 1.62255859 23.32275391 C1.53876953 22.03240234 1.45498047 20.74205078 1.36865234 19.41259766 C1.30806641 18.41357422 1.24748047 17.41455078 1.18505859 16.38525391 C1.84505859 16.38525391 2.50505859 16.38525391 3.18505859 16.38525391 C3.2277796 14.71913485 3.22569691 13.05142506 3.18505859 11.38525391 C2.11860744 10.0889177 2.11860744 10.0889177 -0.37744141 10.32275391 C-1.18181641 10.34337891 -1.98619141 10.36400391 -2.81494141 10.38525391 Z M-11.41650391 13.79150391 C-12.42941683 14.81774463 -13.43702268 15.84924395 -14.43994141 16.88525391 C-14.95556641 17.40990234 -15.47119141 17.93455078 -16.00244141 18.47509766 C-17.27779073 19.77406456 -18.54695402 21.07909967 -19.81494141 22.38525391 C-18.20367845 26.437532 -15.31472143 29.14747237 -12.25244141 32.13525391 C-11.74519531 32.64185547 -11.23794922 33.14845703 -10.71533203 33.67041016 C-8.61732361 36.23949402 -8.61732361 36.23949402 -5.81494141 37.38525391 C-5.69119141 36.10650391 -5.56744141 34.82775391 -5.43994141 33.51025391 C-5.06494141 29.63525391 -5.06494141 29.63525391 -2.81494141 27.38525391 C-2.4973168 25.47519085 -2.4973168 25.47519085 -2.56494141 23.38525391 C-2.55978516 22.68400391 -2.55462891 21.98275391 -2.54931641 21.26025391 C-2.65788626 19.141687 -2.65788626 19.141687 -4.81494141 17.38525391 C-5.52902474 15.40168908 -6.20111882 13.40209953 -6.81494141 11.38525391 C-9.16085749 11.15891648 -9.16085749 11.15891648 -11.41650391 13.79150391 Z M16.18505859 19.38525391 C16.18505859 22.02525391 16.18505859 24.66525391 16.18505859 27.38525391 C17.50505859 26.39525391 18.82505859 25.40525391 20.18505859 24.38525391 C18.87610139 21.26327913 18.87610139 21.26327913 16.18505859 19.38525391 Z M7.18505859 20.38525391 C7.18505859 22.03525391 7.18505859 23.68525391 7.18505859 25.38525391 C9.66005859 25.88025391 9.66005859 25.88025391 12.18505859 26.38525391 C12.56724626 24.72910733 12.89900961 23.06068366 13.18505859 21.38525391 C12.11860744 20.0889177 12.11860744 20.0889177 9.62255859 20.32275391 C8.81818359 20.34337891 8.01380859 20.36400391 7.18505859 20.38525391 Z M3.18505859 22.38525391 C3.18505859 24.03525391 3.18505859 25.68525391 3.18505859 27.38525391 C3.51505859 27.38525391 3.84505859 27.38525391 4.18505859 27.38525391 C4.18505859 25.73525391 4.18505859 24.08525391 4.18505859 22.38525391 C3.85505859 22.38525391 3.52505859 22.38525391 3.18505859 22.38525391 Z M6.18505859 29.38525391 C6.18505859 32.02525391 6.18505859 34.66525391 6.18505859 37.38525391 C7.33432125 36.43103582 8.479364 35.47173346 9.62255859 34.51025391 C10.26064453 33.97658203 10.89873047 33.44291016 11.55615234 32.89306641 C13.29310864 31.4629782 13.29310864 31.4629782 14.18505859 29.38525391 C11.54505859 29.38525391 8.90505859 29.38525391 6.18505859 29.38525391 Z M-3.81494141 39.38525391 C-2.82494141 40.70525391 -1.83494141 42.02525391 -0.81494141 43.38525391 C2.30703337 42.07629671 2.30703337 42.07629671 4.18505859 39.38525391 C1.54505859 39.38525391 -1.09494141 39.38525391 -3.81494141 39.38525391 Z " fill="#000000" transform="translate(24.81494140625,1.61474609375)"/>
</svg>
