<?xml version="1.0" encoding="UTF-8"?>
<svg version="1.1" xmlns="http://www.w3.org/2000/svg" width="50" height="50">
<path d="M0 0 C9.24 0 18.48 0 28 0 C27.67 2.31 27.34 4.62 27 7 C21.06 7 15.12 7 9 7 C9 7.99 9 8.98 9 10 C14.94 10 20.88 10 27 10 C26.67 15.61 26.34 21.22 26 27 C14.01856444 31.67072912 14.01856444 31.67072912 7.75 29.625 C6.87859375 29.34914063 6.0071875 29.07328125 5.109375 28.7890625 C3 28 3 28 2 27 C1.8671875 25.1875 1.8671875 25.1875 1.875 23 C1.87242188 22.278125 1.86984375 21.55625 1.8671875 20.8125 C2 19 2 19 3 18 C4.99958364 17.95919217 7.00045254 17.95745644 9 18 C9.33 18.99 9.66 19.98 10 21 C12.64 21 15.28 21 18 21 C18 19.68 18 18.36 18 17 C16.85660156 17.01160156 15.71320312 17.02320312 14.53515625 17.03515625 C13.04427246 17.04453288 11.55338691 17.05363321 10.0625 17.0625 C9.30775391 17.07087891 8.55300781 17.07925781 7.77539062 17.08789062 C5.85005687 17.09652441 3.92464419 17.05224333 2 17 C-0.04238092 14.95761908 0.58491545 10.76319246 0.4375 7.9375 C0.293125 5.318125 0.14875 2.69875 0 0 Z M3 3 C3.33 6.63 3.66 10.26 4 14 C9.61 14.33 15.22 14.66 21 15 C21 17.97 21 20.94 21 24 C16.38 24 11.76 24 7 24 C7 23.01 7 22.02 7 21 C6.34 21 5.68 21 5 21 C5 22.32 5 23.64 5 25 C11.16943907 27.68924267 16.74455496 27.08514835 23 25 C23.33 20.71 23.66 16.42 24 12 C18.06 12 12.12 12 6 12 C6 9.36 6 6.72 6 4 C12.27 4 18.54 4 25 4 C25 3.67 25 3.34 25 3 C17.74 3 10.48 3 3 3 Z " fill="#000000" transform="translate(11,10)"/>
<path d="M0 0 C13.86 0 27.72 0 42 0 C40.84966216 20.70608108 40.84966216 20.70608108 39.9375 30.625 C39.84662109 31.64078125 39.75574219 32.6565625 39.66210938 33.703125 C39.44409796 36.13567341 39.22343168 38.56794459 39 41 C25.94389937 46.66644082 17.43148093 46.91107012 4 42 C2.04111441 40.04111441 2.47284483 36.39844866 2.24609375 33.7109375 C2.18092056 32.97428864 2.11574738 32.23763977 2.04859924 31.47866821 C1.91116963 29.9135395 1.77597774 28.34821297 1.64282227 26.78271484 C1.44009157 24.40539012 1.2294238 22.02887157 1.01757812 19.65234375 C0.88493753 18.13025001 0.75276174 16.60811568 0.62109375 15.0859375 C0.55860947 14.38149506 0.49612518 13.67705261 0.43174744 12.95126343 C0.06557835 8.58987069 0 4.40170808 0 0 Z M3 2 C3.309375 6.24875 3.61875 10.4975 3.9375 14.875 C4.03281006 16.1935498 4.12812012 17.51209961 4.22631836 18.87060547 C4.72014749 25.59214054 5.28109747 32.29862866 6 39 C16.55777516 42.89000607 24.18894762 43.89970104 35 40 C36.92235469 38.07764531 36.51666985 34.64567349 36.75390625 32.078125 C36.81907944 31.38112488 36.88425262 30.68412476 36.95140076 29.96600342 C37.08878735 28.48664624 37.22398187 27.00708413 37.35717773 25.52734375 C37.56043274 23.27292916 37.77083393 21.01927111 37.98242188 18.765625 C38.49940246 13.16077551 39 7.63515441 39 2 C27.12 2 15.24 2 3 2 Z " fill="#000000" transform="translate(4,2)"/>
</svg>
