<?xml version="1.0" encoding="UTF-8"?>
<svg version="1.1" xmlns="http://www.w3.org/2000/svg" width="50" height="50">
<path d="M0 0 C13.86 0 27.72 0 42 0 C40.84966216 21.85641892 40.84966216 21.85641892 39.9375 31.1875 C39.84662109 32.15107422 39.75574219 33.11464844 39.66210938 34.10742188 C39.44489647 36.4053058 39.22426874 38.70279606 39 41 C25.94389937 46.66644082 17.43148093 46.91107012 4 42 C2.04111441 40.04111441 2.47284483 36.39844866 2.24609375 33.7109375 C2.18092056 32.97428864 2.11574738 32.23763977 2.04859924 31.47866821 C1.91116963 29.9135395 1.77597774 28.34821297 1.64282227 26.78271484 C1.44009157 24.40539012 1.2294238 22.02887157 1.01757812 19.65234375 C0.88493753 18.13025001 0.75276174 16.60811568 0.62109375 15.0859375 C0.55860947 14.38149506 0.49612518 13.67705261 0.43174744 12.95126343 C0.06557835 8.58987069 0 4.40170808 0 0 Z M3 2 C3.309375 6.24875 3.61875 10.4975 3.9375 14.875 C4.03281006 16.1935498 4.12812012 17.51209961 4.22631836 18.87060547 C4.72014749 25.59214054 5.28109747 32.29862866 6 39 C16.22419494 43.3547497 24.4507639 43.86741505 35 40 C36.92235469 38.07764531 36.51666985 34.64567349 36.75390625 32.078125 C36.81907944 31.38112488 36.88425262 30.68412476 36.95140076 29.96600342 C37.08878735 28.48664624 37.22398187 27.00708413 37.35717773 25.52734375 C37.56043274 23.27292916 37.77083393 21.01927111 37.98242188 18.765625 C38.49940246 13.16077551 39 7.63515441 39 2 C27.12 2 15.24 2 3 2 Z " fill="#080808" transform="translate(4,2)"/>
<path d="M0 0 C4.62 0 9.24 0 14 0 C14 1.98 14 3.96 14 6 C11.36 6 8.72 6 6 6 C6 7.65 6 9.3 6 11 C8.64 11 11.28 11 14 11 C13.67 15.62 13.34 20.24 13 25 C4.57142857 28.42857143 4.57142857 28.42857143 0 28 C0 25.69 0 23.38 0 21 C0.66 20.67 1.32 20.34 2 20 C1.34 19.67 0.68 19.34 0 19 C0 12.73 0 6.46 0 0 Z M2 2 C2 6.62 2 11.24 2 16 C5.465 15.505 5.465 15.505 9 15 C9 17.31 9 19.62 9 22 C6.69 22.66 4.38 23.32 2 24 C4.12939828 25.35026777 4.12939828 25.35026777 7.125 24.0625 C8.548125 23.5365625 8.548125 23.5365625 10 23 C10 20.03 10 17.06 10 14 C8.02 14 6.04 14 4 14 C4 10.7 4 7.4 4 4 C6.31 4 8.62 4 11 4 C11 3.34 11 2.68 11 2 C8.03 2 5.06 2 2 2 Z " fill="#080808" transform="translate(26,10)"/>
<path d="M0 0 C1.98 0 3.96 0 6 0 C6 9.24 6 18.48 6 28 C-3 27 -3 27 -7 25 C-7 22.69 -7 20.38 -7 18 C-4.69 18.33 -2.38 18.66 0 19 C0 12.73 0 6.46 0 0 Z M2 2 C2 8.6 2 15.2 2 22 C-0.31 21.67 -2.62 21.34 -5 21 C-5 21.66 -5 22.32 -5 23 C-0.545 23.99 -0.545 23.99 4 25 C4 17.41 4 9.82 4 2 C3.34 2 2.68 2 2 2 Z " fill="#080808" transform="translate(18,10)"/>
</svg>
