<?xml version="1.0" encoding="UTF-8"?>
<svg version="1.1" xmlns="http://www.w3.org/2000/svg" width="64" height="64">
<path d="M0 0 C0.66 0.33 1.32 0.66 2 1 C2.71865081 5.95070559 3.00038208 8.5752134 0.06640625 12.75390625 C-2.21501912 15.26164902 -4.54844647 17.65907614 -7 20 C-7.66 20.66 -8.32 21.32 -9 22 C-8.71202618 26.99154626 -7.43490415 30.65951869 -5 35 C-9.0778608 33.48968119 -11.82783149 30.6994745 -14 27 C-14.75 23.5625 -14.75 23.5625 -14 20 C-11.94785557 17.33049736 -9.53400917 15.20348623 -7 13 C-6.03313783 12.05027209 -5.07354805 11.09301971 -4.125 10.125 C-3.08333333 9.08333333 -2.04166667 8.04166667 -1 7 C-0.63239269 4.67182036 -0.29758419 2.3381615 0 0 Z " fill="#EE4352" transform="translate(38,0)"/>
<path d="M0 0 C-1.32 0.99 -2.64 1.98 -4 3 C0.72304139 3.92536077 5.3254921 4.19292379 10.125 4.1875 C10.86693604 4.18669434 11.60887207 4.18588867 12.37329102 4.18505859 C23.53341067 4.46760696 23.53341067 4.46760696 33 0 C33 1.32 33 2.64 33 4 C24.88331011 7.10544461 17.37534044 7.42599132 8.75 7.3125 C7.50992187 7.31572266 6.26984375 7.31894531 4.9921875 7.32226562 C-0.82128212 7.28788489 -5.51086264 7.06949747 -11 5 C-10 2 -10 2 -8.3125 0.8125 C-5.45030907 -0.19313465 -3.01172092 -0.13689641 0 0 Z " fill="#CD24EB" transform="translate(19,53)"/>
<path d="M0 0 C0.66 0.33 1.32 0.66 2 1 C1.43410156 1.38671875 0.86820313 1.7734375 0.28515625 2.171875 C-0.44832031 2.69265625 -1.18179688 3.2134375 -1.9375 3.75 C-2.66839844 4.26046875 -3.39929688 4.7709375 -4.15234375 5.296875 C-6.24194133 7.22301569 -6.7891138 8.18633415 -7 11 C-6.484375 11.969375 -5.96875 12.93875 -5.4375 13.9375 C-4 17 -4 17 -4.5625 19.75 C-6.15162184 22.23732114 -7.26357709 22.99664493 -10 24 C-9.95875 23.071875 -9.9175 22.14375 -9.875 21.1875 C-9.72863661 17.84190281 -9.72863661 17.84190281 -12 15 C-12.55694511 10.70356628 -12.57085815 8.7611442 -9.9375 5.25 C-6.62040222 2.70924425 -3.94666928 1.34037825 0 0 Z " fill="#E93C6A" transform="translate(44,13)"/>
<path d="M0 0 C0.33 0.66 0.66 1.32 1 2 C0.01 2.33 -0.98 2.66 -2 3 C5.92 3 13.84 3 22 3 C16.06165394 7.45375954 10.15795086 7.18062992 2.9375 7.1875 C2.25623047 7.19974609 1.57496094 7.21199219 0.87304688 7.22460938 C-3.47046617 7.2371267 -6.96479811 6.59267719 -11 5 C-9 2 -9 2 -6.8359375 1.26953125 C-6.02382813 1.11871094 -5.21171875 0.96789063 -4.375 0.8125 C-3.55773437 0.65394531 -2.74046875 0.49539062 -1.8984375 0.33203125 C-1.27195312 0.22246094 -0.64546875 0.11289062 0 0 Z " fill="#DC33A0" transform="translate(24,34)"/>
<path d="M0 0 C0.33 0.66 0.66 1.32 1 2 C2.69769531 1.98259766 2.69769531 1.98259766 4.4296875 1.96484375 C5.91145669 1.95546546 7.39322765 1.9463653 8.875 1.9375 C9.99455078 1.92493164 9.99455078 1.92493164 11.13671875 1.91210938 C16.7734375 1.88671875 16.7734375 1.88671875 19 3 C19 3.66 19 4.32 19 5 C15.30054001 6.23315333 11.85232442 6.18407267 8 6.1875 C7.27554687 6.19974609 6.55109375 6.21199219 5.8046875 6.22460938 C1.99299702 6.23515833 0.2463696 6.1642464 -3 4 C-2.67 3.01 -2.34 2.02 -2 1 C-1.34 0.67 -0.68 0.34 0 0 Z " fill="#D12AD3" transform="translate(23,48)"/>
<path d="M0 0 C0.99 0.33 1.98 0.66 3 1 C4.38515905 1.06897344 5.77345822 1.08466993 7.16015625 1.0625 C7.95357422 1.05476563 8.74699219 1.04703125 9.56445312 1.0390625 C10.38880859 1.02617188 11.21316406 1.01328125 12.0625 1 C13.69915311 0.9745268 15.33588293 0.95348151 16.97265625 0.9375 C18.05945679 0.92009766 18.05945679 0.92009766 19.16821289 0.90234375 C21 1 21 1 23 2 C23 2.66 23 3.32 23 4 C18.82171361 5.39276213 14.87575966 5.18424906 10.5 5.1875 C9.19869141 5.20586914 9.19869141 5.20586914 7.87109375 5.22460938 C7.03707031 5.22654297 6.20304687 5.22847656 5.34375 5.23046875 C4.58255859 5.23457764 3.82136719 5.23868652 3.03710938 5.24291992 C1 5 1 5 -2 3 C-2 2.34 -2 1.68 -2 1 C-1.34 0.67 -0.68 0.34 0 0 Z " fill="#D72EBB" transform="translate(20,42)"/>
<path d="M0 0 C0 0.99 0 1.98 0 3 C-7.14151638 6.33740408 -13.50711152 6.42096843 -21.3125 6.3125 C-23.08077148 6.31733398 -23.08077148 6.31733398 -24.88476562 6.32226562 C-33.59880952 6.26746032 -33.59880952 6.26746032 -37 4 C-35.52853516 4.03480469 -35.52853516 4.03480469 -34.02734375 4.0703125 C-22.48919588 4.25757333 -10.97298705 3.96895276 0 0 Z " fill="#C922F8" transform="translate(54,57)"/>
<path d="M0 0 C6.75 -0.125 6.75 -0.125 9 1 C9.48404255 7.29255319 9.48404255 7.29255319 7.375 10.375 C4.56154387 12.2999963 2.3666837 12.69393785 -1 13 C-0.566875 12.52949219 -0.13375 12.05898438 0.3125 11.57421875 C0.869375 10.95160156 1.42625 10.32898437 2 9.6875 C2.8353125 8.76517578 2.8353125 8.76517578 3.6875 7.82421875 C5.29201498 5.96868665 5.29201498 5.96868665 5 3 C3.35 2.67 1.7 2.34 0 2 C0 1.34 0 0.68 0 0 Z " fill="#DD30AA" transform="translate(46,34)"/>
</svg>
