<?xml version="1.0" encoding="UTF-8"?>
<svg version="1.1" xmlns="http://www.w3.org/2000/svg" width="64" height="64">
<path d="M0 0 C3.68320721 2.38992501 6.34646199 4.67836447 7.90234375 8.796875 C8.56517068 13.73493561 8.48214767 17.56769068 6.33984375 22.109375 C-0.90915611 30.10186202 -10.04820447 33.30356032 -20.7109375 33.95703125 C-30.7711808 34.25714227 -41.64377042 32.68719823 -50.09765625 26.796875 C-54.09848199 22.90607196 -56.24913763 19.64015338 -56.41015625 14.046875 C-56.31759456 9.09126472 -55.62084627 6.48783597 -52.09765625 2.796875 C-37.36798486 -7.85972204 -15.84338696 -9.08708228 0 0 Z M-49.82421875 5.17578125 C-52.4691513 7.88720651 -53.13679246 10.02101874 -53.78515625 13.734375 C-53.49095688 17.89292279 -51.79046488 20.32054482 -48.9296875 23.26171875 C-40.29801697 30.49465376 -28.96705191 31.68644191 -18.09765625 30.796875 C-9.62388049 29.35068394 -2.90395324 26.31769972 3.40234375 20.484375 C5.41827746 16.87249376 5.77264915 13.77989432 4.90234375 9.796875 C1.41752052 3.87267551 -3.68478865 1.02925525 -10.09765625 -1.203125 C-23.89100476 -4.42615549 -38.35629995 -3.98298648 -49.82421875 5.17578125 Z " fill="#000000" transform="translate(56.09765625,18.203125)"/>
<path d="M0 0 C1.65 0 3.3 0 5 0 C4.67 1.65 4.34 3.3 4 5 C4.928125 4.95875 5.85625 4.9175 6.8125 4.875 C10 5 10 5 13 7 C13 6.34 13 5.68 13 5 C14.79133978 4.94608007 16.58313899 4.90724429 18.375 4.875 C19.37273438 4.85179687 20.37046875 4.82859375 21.3984375 4.8046875 C24 5 24 5 26 7 C26.32051241 10.01281664 26.4851593 12.12064877 25 14.8125 C21.81931546 16.70103144 18.66530121 16.69956547 15 17 C15 18.32 15 19.64 15 21 C13.35 21 11.7 21 10 21 C10 19.68 10 18.36 10 17 C8.68 17 7.36 17 6 17 C5.875 11.25 5.875 11.25 7 9 C5.68 9 4.36 9 3 9 C2.67 11.31 2.34 13.62 2 16 C0.35 16.33 -1.3 16.66 -3 17 C-3.33 16.34 -3.66 15.68 -4 15 C-4.556875 15.33 -5.11375 15.66 -5.6875 16 C-8.30284522 17.1309601 -10.1806646 17.15662974 -13 17 C-13.33 18.32 -13.66 19.64 -14 21 C-15.32 21 -16.64 21 -18 21 C-17.57910004 15.39538469 -17.08386889 10.27913453 -15 5 C-13.37509046 4.97301811 -11.75005367 4.95361243 -10.125 4.9375 C-9.22007813 4.92589844 -8.31515625 4.91429687 -7.3828125 4.90234375 C-5 5 -5 5 -3 6 C-3 6.66 -3 7.32 -3 8 C-2.34 8 -1.68 8 -1 8 C-0.67 5.36 -0.34 2.72 0 0 Z M-12 9 C-12 10.32 -12 11.64 -12 13 C-10.35 12.67 -8.7 12.34 -7 12 C-7 11.01 -7 10.02 -7 9 C-8.65 9 -10.3 9 -12 9 Z M17 9 C16.67 10.32 16.34 11.64 16 13 C17.65 12.67 19.3 12.34 21 12 C21 11.01 21 10.02 21 9 C19.68 9 18.36 9 17 9 Z M11 10 C12 13 12 13 12 13 Z " fill="#000000" transform="translate(29,21)"/>
<path d="M0 0 C0 0.99 0 1.98 0 3 C-6.75 7 -6.75 7 -9 7 C-9.66 8.32 -10.32 9.64 -11 11 C-11.66 10.67 -12.32 10.34 -13 10 C-12.66960927 6.91635318 -12.02342865 6.02152903 -9.6875 3.875 C-4.13333333 0 -4.13333333 0 0 0 Z " fill="#000000" transform="translate(19,20)"/>
<path d="M0 0 C0 0.99 0 1.98 0 3 C-1.98 3.33 -3.96 3.66 -6 4 C-6.33 3.01 -6.66 2.02 -7 1 C-4.53721199 -0.231394 -2.7204945 -0.07159196 0 0 Z " fill="#000000" transform="translate(27,18)"/>
<path d="M0 0 C0.99 0 1.98 0 3 0 C3 1.65 3 3.3 3 5 C2.01 5 1.02 5 0 5 C0 3.35 0 1.7 0 0 Z " fill="#000000" transform="translate(34,53)"/>
<path d="M0 0 C1.32 0.33 2.64 0.66 4 1 C3.67 2.32 3.34 3.64 3 5 C2.34 5 1.68 5 1 5 C0.67 3.35 0.34 1.7 0 0 Z " fill="#000000" transform="translate(43,52)"/>
<path d="M0 0 C1.32 0.33 2.64 0.66 4 1 C4 1.99 4 2.98 4 4 C2.68 3.67 1.36 3.34 0 3 C0 2.01 0 1.02 0 0 Z " fill="#000000" transform="translate(52,49)"/>
<path d="M0 0 C0.99 0 1.98 0 3 0 C2.67 1.65 2.34 3.3 2 5 C1.34 4.67 0.68 4.34 0 4 C0 2.68 0 1.36 0 0 Z " fill="#000000" transform="translate(39,53)"/>
<path d="M0 0 C1.32 0.33 2.64 0.66 4 1 C4 1.99 4 2.98 4 4 C3.01 4 2.02 4 1 4 C0.67 2.68 0.34 1.36 0 0 Z " fill="#000000" transform="translate(56,47)"/>
<path d="M0 0 C0.66 0.33 1.32 0.66 2 1 C2 2.32 2 3.64 2 5 C1.01 4.67 0.02 4.34 -1 4 C-0.67 2.68 -0.34 1.36 0 0 Z " fill="#000000" transform="translate(49,50)"/>
</svg>
