<svg xmlns="http://www.w3.org/2000/svg" width="48" height="48" viewBox="0 0 48 48" version="1.1"><path d="M 33 17.943 C 33 23.210, 30.416 25, 22.813 25 C 15.959 25, 15 26.139, 15 34.279 C 15 41.247, 16.760 43, 23.757 43 C 29.678 43, 32 41.290, 32 36.929 C 32 34.124, 31.809 34, 27.500 34 C 25.025 34, 23 33.550, 23 33 C 23 32.413, 26.459 32, 31.378 32 C 41.543 32, 42.515 31.208, 42.467 22.957 C 42.427 16.129, 40.980 14, 36.378 14 C 33.112 14, 33 14.131, 33 17.943 M 27.333 37.667 C 27.700 38.033, 28.300 38.033, 28.667 37.667 C 29.033 37.300, 28.733 37, 28 37 C 27.267 37, 26.967 37.300, 27.333 37.667" stroke="none" fill="#fcc80f" fill-rule="evenodd"/><path d="M 16.571 6.571 C 15.707 7.436, 15 9.461, 15 11.071 C 15 13.876, 15.191 14, 19.500 14 C 21.975 14, 24 14.450, 24 15 C 24 15.587, 20.541 16, 15.622 16 C 9.970 16, 6.894 16.423, 6.166 17.300 C 4.138 19.743, 3.722 26.398, 5.353 30.302 C 6.723 33.582, 7.300 34, 10.449 34 C 13.802 34, 14 33.815, 14 30.691 C 14 25.237, 15.873 23.704, 23.116 23.226 C 30.895 22.713, 32 21.561, 32 13.964 C 32 9.756, 31.532 7.887, 30.171 6.655 C 27.736 4.451, 18.747 4.396, 16.571 6.571 M 18.333 10.667 C 18.700 11.033, 19.300 11.033, 19.667 10.667 C 20.033 10.300, 19.733 10, 19 10 C 18.267 10, 17.967 10.300, 18.333 10.667" stroke="none" fill="#188ed4" fill-rule="evenodd"/></svg>