<svg xmlns="http://www.w3.org/2000/svg" width="50" height="50" viewBox="0 0 50 50" version="1.1"><path d="" stroke="none" fill="#080404" fill-rule="evenodd"/><path d="M 16.635 4.073 C 14.598 5.675, 14 7.025, 14 10.020 L 14 13.895 19.250 14.263 C 22.782 14.510, 21.554 14.696, 15.500 14.830 C 10.550 14.940, 6.005 15.361, 5.400 15.765 C 0.896 18.772, 0.896 31.228, 5.400 34.235 C 6.005 34.639, 8.188 34.976, 10.250 34.985 L 14 35 14 39.427 C 14 45.578, 17.107 48, 25 48 C 32.613 48, 36 45.531, 36 39.980 L 36 36.105 30.750 35.737 C 27.218 35.490, 28.446 35.304, 34.500 35.170 C 39.450 35.060, 43.995 34.639, 44.600 34.235 C 49.104 31.228, 49.104 18.772, 44.600 15.765 C 43.995 15.361, 41.813 15.024, 39.750 15.015 L 36 15 36 10.573 C 36 6.981, 35.503 5.754, 33.365 4.073 C 29.663 1.160, 20.337 1.160, 16.635 4.073 M 21.500 4.689 C 18.603 5.439, 16 8.025, 16 10.155 C 16 11.702, 16.807 12, 21 12 C 25.667 12, 26 12.167, 26 14.500 C 26 16.975, 25.913 17, 17.250 17.015 C 12.438 17.024, 7.966 17.370, 7.313 17.786 C 5.380 19.015, 3.870 24.133, 4.540 27.184 C 5.390 31.051, 7.578 33, 11.071 33 C 13.718 33, 14 32.682, 14 29.700 C 14 24.867, 15.465 24, 23.629 24 C 32.917 24, 34 23.017, 34 14.584 C 34 9.874, 33.564 7.919, 32.250 6.740 C 30.299 4.989, 24.567 3.896, 21.500 4.689 M 18 9 C 18 10.333, 18.667 11, 20 11 C 21.333 11, 22 10.333, 22 9 C 22 7.667, 21.333 7, 20 7 C 18.667 7, 18 7.667, 18 9 M 36 20.300 C 36 25.178, 34.558 26, 26 26 C 21.422 26, 17.923 26.477, 17.200 27.200 C 16.507 27.893, 16 31.210, 16 35.045 C 16 43.414, 17.715 45.385, 25 45.385 C 30.348 45.385, 34 43.137, 34 39.845 C 34 38.298, 33.193 38, 29 38 C 24.333 38, 24 37.833, 24 35.500 C 24 33.025, 24.087 33, 32.750 32.985 C 37.563 32.976, 42.034 32.630, 42.687 32.214 C 44.620 30.985, 46.130 25.867, 45.460 22.816 C 44.610 18.949, 42.422 17, 38.929 17 C 36.282 17, 36 17.318, 36 20.300 M 28 41 C 28 42.333, 28.667 43, 30 43 C 31.333 43, 32 42.333, 32 41 C 32 39.667, 31.333 39, 30 39 C 28.667 39, 28 39.667, 28 41" stroke="none" fill="#040404" fill-rule="evenodd"/></svg>