<svg xmlns="http://www.w3.org/2000/svg" width="60" height="60" viewBox="0 0 60 60" version="1.1"><path d="M 8.275 0.915 C 6.501 1.367, 3.905 2.488, 2.505 3.405 L -0.040 5.072 0.230 26.286 L 0.500 47.500 4.282 49.348 C 6.362 50.364, 10.726 51.437, 13.980 51.732 L 19.895 52.268 20.198 55.884 L 20.500 59.500 39.427 59.773 C 50.435 59.931, 58.752 59.648, 59.304 59.096 C 59.844 58.556, 60.348 46.594, 60.474 31.323 C 60.596 16.571, 60.527 10.802, 60.322 18.505 L 59.949 32.510 55.347 32.144 C 52.152 31.890, 50.955 32.118, 51.431 32.889 C 51.809 33.500, 53.441 34, 55.059 34 L 58 34 58 46 L 58 58 40 58 L 22 58 22 46 L 22 34 34.941 34 C 42.490 34, 48.139 33.583, 48.500 33 C 48.850 32.434, 48.020 32, 46.587 32 L 44.056 32 43.778 18.304 L 43.500 4.609 40.031 2.584 C 37.125 0.889, 34.527 0.522, 24.031 0.326 C 17.139 0.197, 10.049 0.462, 8.275 0.915 M 8.689 3.368 C -0.570 5.974, 0.255 8.873, 10.882 11.079 C 21.648 13.315, 42 10.647, 42 7 C 42 3.124, 18.615 0.574, 8.689 3.368 M 0.425 26 C 0.425 37.825, 0.569 42.663, 0.746 36.750 C 0.923 30.838, 0.923 21.163, 0.746 15.250 C 0.569 9.338, 0.425 14.175, 0.425 26 M 2.193 16.025 C 2.492 21.178, 2.599 21.345, 6.500 22.817 C 11.995 24.890, 32.005 24.890, 37.500 22.817 C 41.401 21.345, 41.508 21.178, 41.807 16.025 C 42.082 11.278, 41.930 10.813, 40.307 11.440 C 31.755 14.744, 12.245 14.744, 3.693 11.440 C 2.070 10.813, 1.918 11.278, 2.193 16.025 M 2 28.668 C 2 33.911, 2.121 34.152, 5.426 35.534 C 7.311 36.321, 11.361 37.260, 14.426 37.620 C 19.499 38.216, 20 38.101, 20 36.338 C 20 32.710, 21.998 32, 32.200 32 L 42 32 42 27.617 L 42 23.234 37.750 24.802 C 31.884 26.966, 12.116 26.966, 6.250 24.802 L 2 23.234 2 28.668 M 2.190 41.525 C 2.481 46.009, 2.723 46.386, 6.051 47.533 C 8.004 48.207, 11.942 49.079, 14.801 49.473 L 20 50.188 20 45.293 L 20 40.398 12.750 39.311 C 8.762 38.714, 4.685 37.890, 3.690 37.482 C 2.070 36.818, 1.912 37.242, 2.190 41.525 M 27.571 40.571 C 26.707 41.436, 26 42.529, 26 43 C 26 44.368, 29.008 47, 30.571 47 C 31.357 47, 32 47.900, 32 49 C 32 50.333, 31.333 51, 30 51 C 28.900 51, 28 50.550, 28 50 C 28 49.450, 27.564 49, 27.031 49 C 25.638 49, 26.888 51.743, 28.577 52.391 C 31.680 53.582, 34.562 50.628, 33.358 47.491 C 33.040 46.662, 31.704 45.713, 30.390 45.383 C 27.445 44.644, 27.052 41, 29.917 41 C 30.971 41, 32.034 41.563, 32.280 42.250 C 32.525 42.938, 33.034 43.216, 33.411 42.869 C 34.165 42.174, 31.367 39, 30 39 C 29.529 39, 28.436 39.707, 27.571 40.571 M 37.571 40.571 C 34.509 43.634, 36.339 53, 40 53 C 42.048 53, 44 49.584, 44 46 C 44 42.416, 42.048 39, 40 39 C 39.529 39, 38.436 39.707, 37.571 40.571 M 46.202 46.250 C 46.500 52.500, 46.500 52.500, 49.750 52.813 C 51.576 52.989, 53 52.661, 53 52.063 C 53 51.479, 51.875 51, 50.500 51 C 48.136 51, 48 50.700, 48 45.500 C 48 42.333, 47.556 40, 46.952 40 C 46.302 40, 46.017 42.371, 46.202 46.250 M 38 46.073 C 38 50.365, 38.270 51.095, 39.750 50.814 C 41.069 50.564, 41.575 49.313, 41.805 45.741 C 42.076 41.526, 41.882 41, 40.055 41 C 38.252 41, 38 41.622, 38 46.073" stroke="none" fill="#343535" fill-rule="evenodd"/><path d="M 8.689 3.368 C -0.570 5.974, 0.255 8.873, 10.882 11.079 C 21.648 13.315, 42 10.647, 42 7 C 42 3.124, 18.615 0.574, 8.689 3.368 M 2.193 16.025 C 2.492 21.178, 2.599 21.345, 6.500 22.817 C 11.995 24.890, 32.005 24.890, 37.500 22.817 C 41.401 21.345, 41.508 21.178, 41.807 16.025 C 42.082 11.278, 41.930 10.813, 40.307 11.440 C 31.755 14.744, 12.245 14.744, 3.693 11.440 C 2.070 10.813, 1.918 11.278, 2.193 16.025 M 2 28.668 C 2 33.911, 2.121 34.152, 5.426 35.534 C 7.311 36.321, 11.361 37.260, 14.426 37.620 C 19.499 38.216, 20 38.101, 20 36.338 C 20 32.710, 21.998 32, 32.200 32 L 42 32 42 27.617 L 42 23.234 37.750 24.802 C 31.884 26.966, 12.116 26.966, 6.250 24.802 L 2 23.234 2 28.668 M 35.250 33.715 L 22 34.058 22 46.029 L 22 58 40 58 L 58 58 58 46 C 58 34.933, 57.854 34, 56.125 34 C 55.094 34, 52.956 33.859, 51.375 33.686 C 49.794 33.513, 42.538 33.526, 35.250 33.715 M 2.190 41.525 C 2.481 46.009, 2.723 46.386, 6.051 47.533 C 8.004 48.207, 11.942 49.079, 14.801 49.473 L 20 50.188 20 45.293 L 20 40.398 12.750 39.311 C 8.762 38.714, 4.685 37.890, 3.690 37.482 C 2.070 36.818, 1.912 37.242, 2.190 41.525 M 27.571 40.571 C 26.707 41.436, 26 42.529, 26 43 C 26 44.368, 29.008 47, 30.571 47 C 31.357 47, 32 47.900, 32 49 C 32 50.333, 31.333 51, 30 51 C 28.900 51, 28 50.550, 28 50 C 28 49.450, 27.564 49, 27.031 49 C 25.638 49, 26.888 51.743, 28.577 52.391 C 31.680 53.582, 34.562 50.628, 33.358 47.491 C 33.040 46.662, 31.704 45.713, 30.390 45.383 C 27.445 44.644, 27.052 41, 29.917 41 C 30.971 41, 32.034 41.563, 32.280 42.250 C 32.525 42.938, 33.034 43.216, 33.411 42.869 C 34.165 42.174, 31.367 39, 30 39 C 29.529 39, 28.436 39.707, 27.571 40.571 M 37.571 40.571 C 34.509 43.634, 36.339 53, 40 53 C 42.048 53, 44 49.584, 44 46 C 44 42.416, 42.048 39, 40 39 C 39.529 39, 38.436 39.707, 37.571 40.571 M 46.202 46.250 C 46.500 52.500, 46.500 52.500, 49.750 52.813 C 51.576 52.989, 53 52.661, 53 52.063 C 53 51.479, 51.875 51, 50.500 51 C 48.136 51, 48 50.700, 48 45.500 C 48 42.333, 47.556 40, 46.952 40 C 46.302 40, 46.017 42.371, 46.202 46.250 M 38 46.073 C 38 50.365, 38.270 51.095, 39.750 50.814 C 41.069 50.564, 41.575 49.313, 41.805 45.741 C 42.076 41.526, 41.882 41, 40.055 41 C 38.252 41, 38 41.622, 38 46.073" stroke="none" fill="#485798" fill-rule="evenodd"/></svg>