<svg xmlns="http://www.w3.org/2000/svg" width="60" height="60" viewBox="0 0 60 60" version="1.1"><path d="" stroke="none" fill="#080404" fill-rule="evenodd"/><path d="M 8.275 0.915 C 6.501 1.367, 3.905 2.488, 2.505 3.405 L -0.040 5.072 0.230 26.286 L 0.500 47.500 4.282 49.348 C 6.362 50.364, 10.726 51.437, 13.980 51.732 L 19.895 52.268 20.198 55.884 L 20.500 59.500 39.427 59.773 C 50.435 59.931, 58.752 59.648, 59.304 59.096 C 59.844 58.556, 60.348 46.594, 60.474 31.323 C 60.596 16.571, 60.528 10.800, 60.325 18.500 L 59.954 32.500 52.005 32.175 L 44.055 31.849 43.778 18.229 L 43.500 4.609 40.031 2.584 C 37.125 0.889, 34.527 0.522, 24.031 0.326 C 17.139 0.197, 10.049 0.462, 8.275 0.915 M 13.310 3.042 C -4.151 5.365, 2.065 11.200, 22 11.200 C 33.204 11.200, 40.500 9.544, 40.500 7 C 40.500 3.791, 24.829 1.510, 13.310 3.042 M 0.425 26 C 0.425 37.825, 0.569 42.663, 0.746 36.750 C 0.923 30.838, 0.923 21.163, 0.746 15.250 C 0.569 9.338, 0.425 14.175, 0.425 26 M 2 15.477 C 2 19.061, 2.464 20.258, 4.329 21.480 C 10.093 25.256, 33.907 25.256, 39.671 21.480 C 41.536 20.258, 42 19.061, 42 15.477 C 42 13.015, 41.888 11.005, 41.750 11.011 C 41.612 11.017, 39.291 11.692, 36.591 12.511 C 33.696 13.389, 27.711 14, 22 14 C 16.289 14, 10.304 13.389, 7.409 12.511 C 4.709 11.692, 2.388 11.017, 2.250 11.011 C 2.112 11.005, 2 13.015, 2 15.477 M 2 28.477 C 2 34.134, 4.167 35.736, 13.309 36.837 C 19.880 37.628, 19.904 37.622, 20.201 35.065 C 20.499 32.509, 20.539 32.499, 31.250 32.216 L 42 31.932 42 27.966 C 42 25.785, 41.888 24.005, 41.750 24.011 C 41.612 24.017, 39.291 24.692, 36.591 25.511 C 30.152 27.464, 13.848 27.464, 7.409 25.511 C 4.709 24.692, 2.388 24.017, 2.250 24.011 C 2.112 24.005, 2 26.015, 2 28.477 M 22.441 35.294 C 22.158 36.032, 22.055 41.330, 22.213 47.068 L 22.500 57.500 40 57.500 L 57.500 57.500 57.500 46 L 57.500 34.500 40.228 34.226 C 26.513 34.009, 22.849 34.229, 22.441 35.294 M 2 40.977 C 2 46.087, 4.427 47.768, 13.357 48.843 L 20 49.642 20 44.821 L 20 40 16.159 40 C 14.046 40, 10.109 39.330, 7.409 38.511 C 4.709 37.692, 2.388 37.017, 2.250 37.011 C 2.112 37.005, 2 38.790, 2 40.977 M 26.714 39.619 C 26.321 40.012, 26 41.619, 26 43.191 C 26 45.320, 26.638 46.292, 28.500 47 C 29.875 47.523, 31 48.412, 31 48.975 C 31 50.289, 29.307 50.306, 28.500 49 C 27.364 47.161, 25.857 47.973, 26.180 50.250 C 26.442 52.094, 27.132 52.500, 30 52.500 C 33.218 52.500, 33.525 52.238, 33.813 49.249 C 34.075 46.540, 33.700 45.837, 31.563 45.024 C 30.154 44.488, 29 43.588, 29 43.025 C 29 41.711, 30.693 41.694, 31.500 43 C 32.636 44.839, 34.143 44.027, 33.820 41.750 C 33.580 40.065, 32.738 39.425, 30.464 39.203 C 28.794 39.039, 27.107 39.227, 26.714 39.619 M 36.436 40.305 C 36.134 41.094, 36.024 44.160, 36.193 47.119 L 36.500 52.500 40.297 52.813 L 44.094 53.126 43.797 46.313 L 43.500 39.500 40.243 39.186 C 38.110 38.981, 36.796 39.367, 36.436 40.305 M 46 46 L 46 53 50 53 C 52.200 53, 54 52.550, 54 52 C 54 51.450, 52.650 51, 51 51 L 48 51 48 45 C 48 41.667, 47.556 39, 47 39 C 46.429 39, 46 42, 46 46 M 38.688 42.646 C 37.737 43.597, 37.821 48.772, 38.798 49.375 C 40.438 50.389, 42.149 48.186, 41.830 45.469 C 41.502 42.674, 40.005 41.329, 38.688 42.646" stroke="none" fill="#040404" fill-rule="evenodd"/></svg>